<svg xmlns="http://www.w3.org/2000/svg" xmlns:xlink="http://www.w3.org/1999/xlink" width="500" zoomAndPan="magnify" viewBox="0 0 375 374.999991" height="500" preserveAspectRatio="xMidYMid meet" version="1.0"><defs><clipPath id="e28c8bc330"><path d="M 73 12.632812 L 334 12.632812 L 334 362.132812 L 73 362.132812 Z M 73 12.632812 " clip-rule="nonzero"/></clipPath></defs><path fill="#6e65ff" d="M 187.480469 154.496094 L 73.714844 258.324219 L 66.222656 251.492188 C 34.9375 222.9375 32.730469 174.4375 61.296875 143.164062 C 76.433594 126.601562 97.167969 118.1875 117.96875 118.1875 C 136.4375 118.1875 154.960938 124.816406 169.671875 138.242188 L 187.480469 154.496094 " fill-opacity="1" fill-rule="nonzero"/><g clip-path="url(#e28c8bc330)"><path fill="#4f46e5" d="M 187.480469 12.648438 C 158.324219 12.648438 134.6875 36.273438 134.6875 65.414062 C 134.6875 94.5625 158.324219 118.1875 187.480469 118.1875 C 216.636719 118.1875 240.273438 94.5625 240.273438 65.414062 C 240.273438 36.273438 216.636719 12.648438 187.480469 12.648438 Z M 308.734375 251.492188 L 301.25 258.316406 L 187.480469 362.152344 L 73.714844 258.324219 L 187.480469 154.496094 L 205.289062 138.242188 C 220.007812 124.816406 238.523438 118.1875 256.992188 118.1875 C 277.800781 118.1875 298.527344 126.601562 313.660156 143.164062 C 342.226562 174.4375 340.023438 222.9375 308.734375 251.492188 " fill-opacity="1" fill-rule="nonzero"/></g></svg>